<svg xmlns="http://www.w3.org/2000/svg" viewBox="0 0 511.998 511.998"><path d="M327.015 399.306h-24.227v-21.187c0-9.068-7.377-16.445-16.445-16.445h-38.787c-9.068 0-16.445 7.377-16.445 16.445v21.187h-24.227c-6.112 0-11.068 4.956-11.068 11.068v83.517c0 6.112 4.956 11.068 11.068 11.068h120.131c6.112 0 11.068-4.956 11.068-11.068v-83.517c0-6.113-4.954-11.068-11.068-11.068zm-77.442 0v-19.17h34.753v19.17h-34.753zM490.581 159.983L468.54 43.831a11.913 11.913 0 0 0-11.704-9.693h-71.172l-3.017-21.671a6.298 6.298 0 0 0-6.237-5.429h-55.215a6.297 6.297 0 0 0-6.237 5.429l-3.017 21.671h-73.879a11.913 11.913 0 0 0-11.704 9.693l-4.693 24.73 25.483-6.489.779-4.106h15.348l27.284-6.948c11.082-2.825 23.054-.451 32.326 6.948h46.433a23.94 23.94 0 0 0-2.142 9.917c0 13.278 10.764 24.04 24.04 24.04s24.04-10.764 24.04-24.04c0-3.537-.77-6.892-2.142-9.917h33.854l17.17 90.484a56.913 56.913 0 0 0-8.545-.644H449.8l-.096-20.907c-.075-15.061-12.39-27.313-27.45-27.313h-62.272c-15.061 0-27.374 12.252-27.449 27.313l-.096 20.908h-93.135c-2.905 0-5.758.221-8.545.644l1.11-5.85-25.482 6.489-2.067 10.894c-13.043 10.331-21.419 26.296-21.419 44.226v51.227c0 11.658 9.451 21.109 21.109 21.109h7.85v25.062c0 15.885 12.878 28.762 28.762 28.762s28.762-12.878 28.762-28.762v-25.062h156.135v25.062c0 15.885 12.878 28.762 28.762 28.762 15.885 0 28.762-12.878 28.762-28.762v-25.062h7.85c11.659 0 21.109-9.451 21.109-21.109V204.21c0-17.931-8.377-33.896-21.419-44.227zm-250.784 83.283c-15.078 0-27.153-12.257-27.153-27.153 0-14.996 12.157-27.153 27.153-27.153 14.929 0 27.04 12.05 27.148 26.953 0 .067.006.133.006.2 0 14.997-12.158 27.153-27.154 27.153zm215.303 0c-14.996 0-27.153-12.157-27.153-27.153 0-.067.004-.133.006-.2.108-14.904 12.219-26.953 27.148-26.953 14.996 0 27.153 12.157 27.153 27.153-.001 14.898-12.078 27.153-27.154 27.153z"/><path d="M318.874 82.125c-2.692-10.573-13.445-16.967-24.021-14.271l-135.667 34.548-102.716-.001c-25.653 0-46.627 20.87-46.754 46.521l-.73 145.15c-.041 8.205 4.927 15.265 12.033 18.287l-.053 23.794h-5.844C6.77 336.153 0 342.923 0 351.274v73.919c0 8.351 6.77 15.121 15.121 15.121h27.243c7.166 0 13.155-4.991 14.713-11.684v52.62c0 13.094 10.615 23.709 23.709 23.709s23.709-10.615 23.709-23.709V291.742h10.235V481.25c0 13.094 10.615 23.709 23.709 23.709s23.709-10.615 23.709-23.709c0-319.084-.43-123.824-.43-339.336 0 0 26.603-6.118 142.884-35.768 10.575-2.692 16.965-13.448 14.272-24.021zM42.364 336.153h-5.108l.055-24.2c6.583-3.178 11.15-9.881 11.189-17.683l.729-145.151a3.918 3.918 0 0 1 7.839.02l.009 198.697c-1.558-6.692-7.547-11.683-14.713-11.683zM109.609 7.455c-22.615 0-40.947 18.332-40.947 40.947-.001 22.797 18.551 40.948 40.947 40.948 22.509 0 40.947-18.261 40.947-40.947 0-22.616-18.332-40.948-40.947-40.948z"/></svg>